<svg xmlns="http://www.w3.org/2000/svg" viewBox="0 0 500 229"><style>.st0{fill:#52A9DB;} .st1{fill:#231F20;}</style><path class="st0" d="M318 23c8.6 0 14 5.9 14 13.3 0 7.7-5.4 13.7-14 13.7-8.9 0-15-6-15-13.7 0-7.4 6.1-13.3 15-13.3zm-14 120V60h27v83h-27zm43 0V76l-2-16h23l1.3 8.8c5.2-7 12.9-11.8 23.7-11.8 15.8 0 26 9.3 26 29v57h-27V91c0-7.4-1.2-13-7.5-13-6.6 0-10.5 5.3-10.5 12.2V143h-27zm141.7-25.8l9.5 18.2c-7.4 5.8-17.6 9.5-30.3 9.5-24.2 0-39.9-14.9-39.9-42.9 0-32 21-44.5 40.4-44.5 11.6 0 23.4 3.9 31.6 16.8l-16.5 14c-3.9-5.3-8.1-9.5-14-9.5-8.9 0-14.5 7.9-14.5 22.2 0 14.4 5.9 22.6 16.8 22.6 5.6 0 10.3-1.7 16.9-6.4z"/><path class="st1" d="M69 74h-6V43h67V0H15v115h54c17.9 0 27 13.2 27 26.5 0 13.6-9.7 27.5-27 27.5-9.9 0-24.2-6.1-37.2-22.2L0 175.3C16.7 196.6 40 212 68.7 212c59 0 73.3-46.4 73.3-69 0-27.8-13.6-69-73-69zm190.7 50.8c8-13.9 12.1-27.5 12.1-39.9 0-39.3-29.7-58.4-65.8-58.4-22.6 0-48.2 11.7-72.6 38L162 94.8c17.3-16.7 32.8-25.3 44.2-25.3 14.8 0 19.2 9 19.5 17.3.2 8.5-6.2 19.2-6.2 19.2s-17.5 29.7-87.3 120.4l.7 2.7h139v-44h-53c37.5-54.8 36.8-53.5 40.8-60.3z"/></svg>